<svg xmlns="http://www.w3.org/2000/svg" height="800" width="1200" viewBox="-32.4225 -54.0375 280.995 324.225"><g transform="translate(-.025 -.025)"><circle r="107.7" cy="108.1" cx="108.1" stroke-width=".75" stroke="#231F20" fill="#FEBD11"/><circle r="103.8" cy="108.1" cx="108.1" stroke-width=".5" stroke="#231F20" fill="none"/><circle r="101.2" cy="108.1" cx="108.1" stroke="#231F20" fill="#FFF"/><circle r="81.3" cy="108.1" cx="108.1" stroke="#231F20" fill="#FEBD11"/><path d="M65 181l1.2.7-1.9 10.8c-.1.5-.1.9 0 1.2.1.2.3.4.5.6l.2.1-.4.6-3.8-2.2.4-.6c.1.1.3.1.4.2.2.1.4.2.5.2.2 0 .3-.1.4-.2.1-.1.1-.4.2-.9l.5-2.5-3.8-2.2-2.2 1.8c-.2.2-.4.3-.4.4-.1.1-.1.2-.1.3 0 .1 0 .2.1.3.1.1.2.2.4.3.1.1.2.1.3.2l-.4.6-3.2-1.8.4-.6c.3.2.5.3.7.3.2 0 .3 0 .5-.1s.5-.3.9-.6zm-4.8 5.1l3.3 1.9 1-5.5zm11.4-1.6l4.3 1.9-.3.7-.3-.1c-.3-.1-.6-.2-.7-.2-.2 0-.3.1-.5.2s-.3.4-.5.9l-3.2 7.3c-.2.4-.2.6-.2.8 0 .2.1.3.1.5.1.1.3.3.6.4l.3.1-.3.7-4.3-1.9.3-.7.4.2c.3.1.6.2.7.2.2 0 .3-.1.4-.2.1-.1.3-.4.4-.8l3.3-7.4c.2-.4.3-.7.3-.9 0-.2 0-.3-.1-.4-.1-.1-.3-.3-.6-.4l-.4-.2zm5.6 2.6l6 1.9c1.1.4 2 .8 2.5 1.2.5.4.9.9 1 1.5.2.5.2 1.1 0 1.7-.2.6-.5 1.1-1 1.5-.5.4-1 .6-1.7.7-.7.1-1.5 0-2.4-.3l1.9 4.8c.2.4.3.6.3.7.1.2.3.4.5.6.2.2.4.3.7.4l.2.1-.2.7-2.7-.8-2.5-7-1.5-.5-1.1 3.6c-.1.4-.2.7-.2.8 0 .2.1.4.2.5.1.1.4.2.8.4l.3.1-.2.7-4.5-1.4.2-.7.4.1c.3.1.5.1.6.1.1 0 .2 0 .3-.1l.3-.3c0-.1.1-.3.3-.8l2.4-7.7c.1-.3.2-.6.1-.8 0-.2-.1-.3-.2-.4-.1-.1-.3-.2-.6-.3l-.5-.2zm2.7 1.9l-1.4 4.4 2.4.8c.8.3 1.4.4 1.8.4.5 0 1-.1 1.3-.4.4-.3.7-.7.8-1.2.1-.5.2-.9.1-1.3s-.3-.7-.6-1c-.3-.3-.8-.5-1.4-.7zm15.2 2.8l9.4.8.8 3.3-.8.2c-.3-.8-.5-1.4-.8-1.7-.3-.4-.6-.6-1-.8-.4-.2-1-.3-1.9-.4l-2.7-.2-.4 4.7 1.2.1c.6.1 1.1 0 1.4-.1.3-.1.5-.3.7-.5.2-.3.3-.6.3-1.1v-.3l.9.1-.5 5.4-.9-.1v-.5c0-.5 0-.8-.1-1.1-.1-.3-.3-.5-.5-.6-.2-.1-.7-.2-1.3-.3l-1.3-.1-.3 3.8v.7c.1.1.2.3.3.3.1.1.4.1.8.2h.3l-.1.7-4.7-.4.1-.7h1.1c.1-.1.3-.2.3-.3.1-.1.1-.4.2-.8l.8-8.4v-.8c-.1-.2-.1-.3-.3-.4-.1-.1-.4-.1-.7-.2H95zm17.9.6c1.1-.1 2.2.2 3.1.7 1 .5 1.8 1.3 2.4 2.2.6.9.9 2 1 3.2.1 1.9-.4 3.5-1.5 4.7-1.1 1.3-2.6 1.9-4.4 2-2 .1-3.7-.5-5-1.9-1-1.1-1.6-2.5-1.7-4.1-.1-1.2.2-2.3.7-3.3.5-1 1.2-1.8 2.2-2.4.9-.7 2-1.1 3.2-1.1zm.1.9c-.9 0-1.7.3-2.3.8-.6.5-1.1 1.1-1.5 1.9-.4.8-.5 1.9-.4 3.1.1 1.1.3 2.1.7 2.9.4.8 1 1.4 1.7 1.8.7.4 1.4.6 2.3.5.8 0 1.5-.3 2.1-.7.6-.4 1.1-1.1 1.5-2 .4-.9.5-1.9.5-3-.1-1.1-.3-2.1-.8-3-.4-.8-.9-1.3-1.5-1.7-.7-.5-1.5-.6-2.3-.6zm7.6-1.3l6.2-1.4c1.2-.3 2.1-.3 2.8-.2.7.1 1.2.4 1.6.8.4.4.7.9.8 1.5.1.6.1 1.2-.1 1.8-.2.6-.6 1-1.1 1.4-.5.4-1.3.7-2.3 1l4 3.2c.3.3.5.4.6.5.2.1.5.2.7.3h1l.2.7-2.7.6-5.7-4.8-1.5.3.8 3.7c.1.4.2.7.2.8.1.2.2.3.4.3s.4 0 .9-.1l.3-.1.2.7-4.6 1-.2-.7.4-.1c.3-.1.5-.1.6-.2.1-.1.2-.2.2-.3.1-.1.1-.3.1-.4 0-.1-.1-.4-.2-.9l-1.7-7.9c-.1-.3-.2-.6-.3-.7-.1-.1-.2-.2-.4-.3h-.7l-.5.1zm3.3.2l1 4.5 2.5-.5c.8-.2 1.4-.4 1.7-.5.5-.2.8-.6 1-1 .2-.4.2-.9.1-1.5-.1-.5-.3-.9-.6-1.2-.3-.3-.6-.5-1-.6-.4-.1-.9-.1-1.6.1zm18.4-6.6l.6-.2 2.5 3.4-.7.5c-.8-.7-1.3-1.2-1.6-1.4-.5-.4-1.1-.6-1.8-.7-.6-.1-1.3 0-1.9.2-.7.3-1.3.8-1.8 1.4-.5.6-.7 1.4-.8 2.3-.1.9.1 1.9.4 2.8.4 1 .9 1.8 1.6 2.4.7.6 1.5 1 2.3 1.2.8.2 1.6.1 2.4-.2.7-.3 1.4-.8 2-1.5.6-.7 1-1.6 1.3-2.5l.8.2c-.1.6-.3 1.2-.6 1.7-.4.8-.9 1.5-1.5 2s-1.3 1-2.1 1.3c-1.8.7-3.5.6-5.1-.3-1.3-.7-2.3-1.9-2.9-3.4-.4-1.1-.6-2.2-.4-3.3.2-1.1.6-2.1 1.3-3 .7-.9 1.6-1.5 2.6-1.9.6-.2 1.1-.3 1.6-.4.5-.1 1.1 0 1.7.2zm3.1-1.4l8.7-5 2.6 2.2-.5.6c-.4-.4-.8-.6-1.2-.8-.4-.1-.7-.2-1.1-.3-.4 0-.7 0-1.1.1-.3.1-.9.4-1.6.8l-2.6 1.5 2.3 3.9 1.3-.7c.5-.3.8-.6.9-.9.2-.3.2-.6.2-.9 0-.2-.2-.6-.4-1l-.1-.2.8-.4 2.7 4.7-.8.4-.2-.4c-.2-.4-.4-.6-.5-.7-.1-.1-.3-.2-.6-.3-.2-.1-.4-.1-.6 0-.2 0-.5.2-.9.4l-1.3.7 2 3.5c.2.4.4.6.4.6.1.1.2.1.3.1.1 0 .3-.1.7-.3l1.6-.9c.9-.5 1.5-1 1.9-1.5.4-.5.6-1.1.8-1.8.1-.5.1-1.2 0-2l.8-.2.7 4-9 5.2-.4-.6.3-.2c.4-.2.6-.4.6-.5.1-.1.1-.3.1-.5 0-.1-.1-.4-.3-.7l-4.2-7.4c-.2-.3-.4-.5-.5-.6-.1-.1-.3-.1-.5-.1-.1 0-.4.2-.9.5zM33.9 44.8l3.4-3.5.5.5-.1.2c-.3.3-.5.5-.5.7v.4c.1.2.2.4.6.7l4.1 4c.7.7 1.4 1.2 1.9 1.3.5.2 1.1.2 1.8 0 .6-.2 1.2-.5 1.7-1s.8-1.1 1-1.8c.2-.7.2-1.3 0-1.8s-.6-1.2-1.4-1.9l-4-3.9c-.3-.3-.5-.5-.7-.5-.2-.1-.4-.1-.5 0-.2.1-.4.2-.6.4l-.2.3-.5-.5 3-3.1.5.5-.2.2c-.6.4-.7.7-.7 1 0 .3.2.6.6.9l4.2 4.1c.8.8 1.3 1.5 1.5 2.3.2.8.2 1.6 0 2.4-.2.8-.7 1.6-1.4 2.4-.7.7-1.4 1.2-2.3 1.4-.9.3-1.7.3-2.4.1-.7-.2-1.4-.6-2.1-1.3l-4.5-4.4c-.3-.3-.5-.5-.7-.5-.2-.1-.3-.1-.5 0-.2 0-.3.2-.6.4l-.3.3zm11.6-11.5l3.1-2.3L59 35.3l-4.3-5.9c-.3-.4-.5-.6-.7-.7-.2-.1-.4-.1-.6-.1-.2 0-.4.1-.7.3l-.3.2-.4-.6 3.4-2.5.5.6-.2.1c-.3.2-.5.4-.6.5-.1.2-.1.4-.1.6.1.2.2.5.5.9l6.2 8.4-.9.7-12.5-5.1 5.4 7.3c.3.4.5.6.6.7.1.1.3.1.4.2h.5c.1-.1.4-.2.8-.5l.5.6-3.5 2.6-.4-.6.2-.1c.4-.3.6-.5.6-.6.1-.2.1-.4 0-.6-.1-.2-.2-.5-.5-.9l-4.8-6.5c-.3-.4-.5-.7-.6-.7-.2-.1-.3-.2-.5-.2s-.5.2-.8.4l-.3.2zm12.1-8.5l4.2-2.4.4.7-.3.2c-.3.2-.5.3-.6.5-.1.2-.1.3-.1.5s.2.5.4 1l4.1 7.2c.2.4.4.6.5.7.2.1.3.2.5.2s.4-.1.7-.3l.3-.2.4.7-4.1 2.3-.4-.7.4-.2c.3-.2.5-.3.6-.5.1-.1.1-.3.1-.5s-.1-.4-.4-.8l-4.2-7.3c-.2-.4-.4-.7-.6-.8-.2-.1-.3-.2-.5-.1-.2 0-.4.1-.7.3l-.3.1zm6.6-4.2l.6-.3.3.4 7.1-3.2-.2-.4.6-.3 2.8 2.9-.6.6c-.8-.7-1.5-1.2-2.1-1.3-.7-.1-1.4 0-2.1.3-.3.1-.5.2-.6.3 0 .1-.1.1-.1.2s.1.3.2.6l3.6 8.1c.2.4.3.6.4.7.1.1.2.2.3.2h.4c.1 0 .5-.1.9-.4l.3.7-4.5 2-.2-.7c.5-.2.8-.4.9-.5.2-.1.3-.3.3-.5s-.1-.5-.3-.9l-3.7-8.2c-.1-.3-.2-.4-.2-.4s-.1-.1-.2-.1-.2.1-.4.1c-.6.3-1.1.6-1.3.9-.2.3-.5.7-.7 1.3-.2.5-.2 1.1-.2 1.8l-.9.1zM76.1 16l10-2.8 2.1 2.9-.7.5c-.3-.5-.7-.8-1-1.1-.3-.2-.7-.4-1-.5-.4-.1-.7-.2-1.1-.2-.3 0-.9.2-1.8.4l-3 .8 1.3 4.5 1.5-.4c.5-.2.9-.4 1.2-.6.2-.3.4-.5.4-.9 0-.2 0-.6-.2-1.1l-.1-.2.9-.2 1.5 5.4-.9.2-.2-.4c-.1-.4-.2-.7-.3-.9-.1-.2-.3-.3-.5-.4-.2-.1-.4-.2-.6-.2-.2 0-.5.1-1 .2l-1.5.4 1.1 4c.1.4.2.7.3.7.1.1.1.1.2.1s.3 0 .7-.1l1.8-.5c1-.3 1.8-.6 2.3-1 .5-.4.9-.9 1.2-1.6.2-.5.4-1.1.5-2l.9.1-.3 4.2-10.4 2.9-.2-.7.4-.1c.4-.1.7-.2.7-.3.1-.1.2-.3.2-.5 0-.1 0-.4-.1-.8L78 17.3c-.1-.4-.2-.6-.3-.7-.1-.1-.3-.2-.5-.2-.1 0-.5.1-1.1.2zm14.7-3.1l-.1-.8 4.5-.5c2.1-.2 3.5-.3 4.4-.1 1.2.2 2.3.9 3.2 1.8 1 1.1 1.5 2.3 1.7 3.8.1 1 0 2-.3 2.9-.3.9-.8 1.7-1.4 2.3-.5.5-1.1.9-1.9 1.2-.8.3-1.5.5-2.3.5l-6.5.7-.1-.7.5-.1h.2c.2 0 .4-.1.5-.2.1-.1.2-.2.3-.4v-.8l-.9-8.5c-.1-.5-.1-.8-.2-.9-.1-.2-.3-.3-.5-.3-.1 0-.5 0-1.1.1zm4.5 10.5l2.7-.3c.3 0 .7-.1 1.3-.3.6-.2 1.1-.3 1.3-.5.4-.3.7-.6 1.1-1.1.4-.5.6-1.1.7-1.7.1-.7.2-1.4.1-2.2-.1-.8-.3-1.5-.5-2.1-.3-.6-.6-1.1-1.1-1.5-.5-.4-1-.7-1.5-.9-.5-.2-1.1-.3-1.7-.3-.3 0-.9.1-1.7.1l-1.9.2zm26.9-11.7l.7.1.5 4-.9.2c-.4-1.2-1-2.1-1.8-2.8-.7-.6-1.4-1-2.3-1.1-.5-.1-1 0-1.5.1-.4.1-.8.4-1 .6-.2.3-.4.6-.4.9 0 .3 0 .6.2.9.1.3.4.5.7.8.3.3.8.5 1.6.8l2.3 1c.3.1.7.3 1.2.6s.9.6 1.2.9c.3.3.5.7.6 1.1.1.4.2.8.1 1.3-.1 1-.7 1.8-1.6 2.5-1 .7-2.1.9-3.5.8-.7-.1-1.4-.3-1.9-.5-.5-.3-1.1-.7-1.7-1.3l-.6 1.2-.6-.1-.3-4.6.9-.1c.2.9.5 1.6 1 2.3.4.6 1 1.2 1.6 1.5.6.4 1.2.6 1.8.7.9.1 1.7-.1 2.4-.5.6-.4.9-.9 1-1.5.1-.6-.1-1-.4-1.4-.4-.4-1-.8-2-1.2l-2.2-.9c-1.2-.5-2.1-1.1-2.5-1.7-.4-.6-.6-1.3-.6-2.1.1-.6.3-1.1.7-1.6.4-.5 1-.8 1.7-1.1.7-.3 1.5-.3 2.4-.2.7.1 1.4.3 2 .6.4.2.8.5 1.2.9zm5.5.5l.6.2v.4l7.6 1.9.2-.4.6.2.4 4-.9.1c-.1-1.1-.4-1.9-.8-2.4s-1-.9-1.9-1.1c-.3-.1-.6-.1-.6-.1-.1 0-.1 0-.2.1 0 .1-.1.3-.2.6l-2.2 8.6c-.1.4-.2.7-.1.8 0 .2 0 .3.1.4l.3.3c.1.1.5.2 1 .3l-.2.7-4.8-1.2.2-.7c.5.1.9.2 1 .2.2 0 .4-.1.5-.2.1-.1.3-.4.4-.9l2.2-8.8c.1-.3.1-.4.1-.5 0-.1-.1-.1-.1-.2-.1-.1-.2-.1-.4-.2-.6-.2-1.2-.2-1.6-.1-.4.1-.9.3-1.3.6s-.9.7-1.3 1.3l-.7-.5zm16.5 5.5l1.4.6-.4 11.4c0 .6 0 1 .1 1.2.1.2.3.4.6.5l.2.1-.3.7-4.2-1.7.3-.7c.1 0 .3.1.4.1.3.1.5.2.6.1.2 0 .3-.1.4-.3 0-.1.1-.4.1-1l.2-2.6-4.3-1.7-2 2.2c-.2.2-.3.4-.4.5 0 .1-.1.2 0 .3.1.1.1.2.2.3.1.1.2.2.5.3.2.1.3.1.4.2l-.3.7-3.5-1.4.3-.7c.3.1.6.2.7.2.2 0 .3-.1.5-.2s.4-.3.8-.7zm-4.2 6l3.6 1.5.3-5.8zm13.1-2.5l.5.3-.1.4 6.7 3.9.3-.3.6.3-.7 3.9-.9-.2c.2-1.1.1-1.9-.2-2.5-.3-.6-.8-1.1-1.5-1.6-.3-.2-.5-.3-.6-.3-.1 0-.1 0-.2.1-.1 0-.2.2-.4.5l-4.4 7.6-.4.8v.4c0 .1.1.2.2.3.1.1.4.3.8.6l-.4.7-4.2-2.5.4-.7c.5.3.8.4.9.5.2.1.4 0 .6-.1.2-.1.4-.4.6-.7l4.5-7.8c.1-.2.2-.4.2-.5 0-.1 0-.1-.1-.2 0-.1-.2-.2-.4-.3-.6-.3-1.1-.5-1.5-.6-.4-.1-.9 0-1.4.2-.5.2-1 .5-1.6.9l-.6-.7zm10.8 7l8.1 6.4-1.1 3.4-.8-.3c.2-.6.3-1 .3-1.4 0-.4 0-.8-.2-1.2-.2-.4-.3-.7-.5-1-.2-.3-.7-.7-1.4-1.2l-2.4-1.9-2.9 3.6 1.2 1c.4.4.8.5 1.2.6.3 0 .7 0 .9-.2.2-.1.5-.4.8-.8l.1-.2.7.6-3.5 4.4-.7-.6.3-.4c.3-.3.4-.6.5-.8.1-.2.1-.4.1-.6 0-.2-.1-.4-.2-.6-.1-.2-.4-.4-.7-.7l-1.2-1-2.6 3.2c-.3.3-.4.6-.4.7v.3c0 .1.2.3.5.5l1.5 1.2c.8.7 1.6 1.1 2.2 1.3.6.2 1.3.2 2 .1.5-.1 1.2-.3 1.9-.7l.5.7-3.6 2.2-8.4-6.7.5-.6.3.2c.3.3.6.4.7.4.2 0 .3 0 .5-.1.1-.1.3-.2.6-.6l5.4-6.9c.2-.3.4-.5.4-.7 0-.2 0-.3-.1-.5-.1-.1-.3-.3-.8-.7zm17.4 15.6l.5.5-2.2 3.4-.8-.4c.4-1.1.6-2.3.4-3.3-.1-.9-.5-1.7-1.1-2.3-.4-.4-.8-.7-1.2-.9-.4-.2-.8-.2-1.2-.2-.4.1-.7.2-.9.4-.2.2-.4.4-.4.8-.1.3-.1.6 0 1s.3.9.7 1.6l1.1 2.2c.1.3.3.7.5 1.3.2.6.3 1.1.3 1.5 0 .4-.1.8-.2 1.2-.2.4-.4.8-.7 1.1-.7.7-1.7 1-2.8.9-1.2-.1-2.2-.7-3.2-1.7-.5-.5-.9-1.1-1.1-1.6-.2-.6-.4-1.3-.5-2.1l-1.2.5-.4-.5 2.8-3.8.7.5c-.4.8-.6 1.6-.7 2.4-.1.8 0 1.5.2 2.2.2.7.5 1.2 1 1.7.6.6 1.3 1 2.2 1.1.7.1 1.3-.1 1.7-.5.4-.4.6-.8.6-1.4 0-.5-.3-1.3-.8-2.2l-1.1-2.1c-.6-1.2-.9-2.2-.8-2.9.1-.8.4-1.4.9-1.9.4-.4.9-.6 1.5-.7.6-.1 1.3 0 2 .3s1.4.7 2 1.3c.5.5.9 1.1 1.1 1.7.2.5.3.9.3 1.4z" fill="#231F20"/><circle r="78.8" cy="108.1" cx="108.1" stroke-width=".5" stroke="#231F20" fill="#004B85"/><path d="M110.6 36.8h3.8l-3 2.2 1.4 4-3.5-2.5-3.6 2.6 1.5-4.1-2.9-2.2h3.6l1.4-3.8zm-28.5 4.9l3.5-1.5-1.9 3.2 2.9 3.1-4.2-1-2.2 3.5-.4-4-3.4-.8 3.3-1.4-.3-4.1zM58.2 57.2l2.6-2.7-.5 3.6 3.8 1.8-4.2.8-.6 4.3-2-3.8-3.8.8 2.8-2.9-1.8-3.6zM42.8 79.5l1.4-3.8.9 3.9 4.2.2-3.6 2.3 1.1 4.2-3-2.7-3.5 2.1 1.5-3.7-3.1-2.7zm-6 26.4v-3.8l2.2 3 4-1.3-2.5 3.4 2.6 3.6-3.8-1.5-2.5 3.3v-4l-3.8-1.3zm4.3 26.8l-1.4-3.5 3.2 1.9 3.1-2.7-1 4.1 3.8 2.3-4.1.1-1 4.3-1.5-4.1-4.1.2zm96.5-89.5l3.5 1.4-3.6.9-.3 4.2L135 46l-4.3 1.1 2.9-3.3-1.8-3 3.3 1.3 2.7-3zm22.5 16.1l2.7 2.7-3.7-.6-1.8 3.8-.7-4.2-4.3-.7 3.9-1.9-.5-3.5 2.5 2.5 3.7-1.7zm14.7 23.5l1.7 3.8-3.4-2.2-3.2 2.8 1-4.2-3.4-2.2 4-.3.9-3.7 1.4 3.5 4-.2zm4.6 28l.1 4.1-2.3-3.3-4 1.3 2.6-3.4-2.4-3.4 3.9 1.3 2.3-3.3-.2 4 3.8 1.4zm-6.8 27.9l-1.6 3.7-.7-3.9-3.7-.3 3.2-2.2-.9-4 3.1 2.7 3.1-2.1-1.4 3.6 2.9 2.8zm-16.9 22.5l-2.9 2.9.8-3.9-3.3-1.8 3.8-.7.8-4 1.8 3.6 3.6-.4-2.6 2.5 1.6 3.7zm-99.2-3.8l-2.7-2.6 3.7.5 1.8-3.8.7 4.2 4.1.8-3.4 1.5.6 4.1-2.8-2.8-3.7 1.8z" stroke-width=".5" stroke="#FFF" fill="#FFF"/><path d="M88.9 74.8c-4-8.7 3.5-9.3 3.5-9.3-3.4-6 1.9-8 1.9-8 .1-.6.4-1.1.8-1.4.5-.3 1.1-.5 1.7-.5 0-3.4 3.2-4.5 4.3-4.7.6-.1 1.2 0 1.6.4.6-.3 1.2.3 1.2.3.5-.9 1.7-2.2 4.9-2.2 2.7 0 3.6.9 4.5 2.3 1-.6 2.9-.3 3.2.4 0 0 .9-.6 1.3.8.7-.4 1.6-.2 2 .6 0 0 0 .1.1.1.4.7.7 1.5.8 2.3.4-.2.8-.3 1.2-.3.7 0 1.2 0 1.6 1.2v2c1.1.2 2.1.9 2.7 1.9 2.5 3.6 0 8.7 0 8.7 1.3.6 2 1.9 2.1 4.2.1 2.3-2.1 4.4-2.1 4.4.2.8-.1 1.6-.9 1.9 3 8.5-16.7 9.7-16.7 9.7-4.6.5-9.2-.3-13.3-2.3-6.3-3.2-5-7.1-5-7.1-3.6-2.1-1.7-6.2-1.7-6.2" stroke-width=".5" stroke="#231F20" fill="#FFF"/><path d="M90 90.8c.5.5 1.2.8 1.9.8.7.1 1.4-.5 1.5-1.2V90c-.1-.9-1.8-4.2-4.8-2.9l-.3-.2c-.5-.4-1.1-.6-1.7-.7-.8-.1-1.4.5-1.5 1.2v.4c.1.9 1.9 4.3 4.9 3zm15.3 0c.5.5 1.2.8 1.9.8.8.1 1.4-.5 1.5-1.2V90c-.1-.9-1.8-4.2-4.8-2.9l-.3-.2c-.5-.4-1.1-.6-1.7-.7-.8-.1-1.4.5-1.5 1.2v.4c.2.9 1.9 4.3 4.9 3zm15.3 0c.5.5 1.2.8 1.9.8.8.1 1.4-.5 1.5-1.2V90c-.1-.9-1.8-4.2-4.8-2.9l-.3-.2c-.5-.4-1.1-.6-1.7-.7-.7-.1-1.4.4-1.5 1.2v.4c.1.9 1.9 4.3 4.9 3z" stroke-linecap="round" stroke-width=".37" stroke="#231F20" fill="#FFF"/><path d="M97.6 90.8c.5.5 1.2.8 1.9.8.8.1 1.4-.5 1.5-1.2V90c-.1-.9-1.8-4.2-4.8-2.9l-.2-.2c-.5-.4-1.1-.6-1.7-.7-.8-.1-1.4.5-1.5 1.2v.4c.1.9 1.9 4.3 4.8 3zm15.3 0c.5.5 1.2.8 1.9.8.8.1 1.4-.5 1.5-1.2V90c-.1-.9-1.8-4.2-4.8-2.9l-.3-.2c-.5-.4-1.1-.6-1.7-.7-.8-.1-1.4.5-1.5 1.2v.4c.2.9 2 4.3 4.9 3zm15.3 0c.5.5 1.2.8 1.9.8.8.1 1.4-.5 1.5-1.2V90c-.1-.9-1.8-4.2-4.8-2.9l-.3-.2c-.5-.4-1.1-.6-1.7-.7-.8-.1-1.4.5-1.5 1.2v.4c.2.9 2 4.3 4.9 3z" stroke-linecap="round" stroke-width=".37" stroke="#231F20" fill="#6ACFF6"/><path d="M89.9 87.7c-.8 0-.5.1-1.2-.5m-.2 2.7c.5.1 1 .3 1.3.7m7.8-2.9c-.8 0-.5.1-1.2-.5m-.2 2.7c.5.1 1 .3 1.3.7m7.7-2.9c-.8 0-.5.1-1.2-.5m-.1 2.7c.5.1 1 .3 1.3.7m7.6-2.9c-.8 0-.5.1-1.2-.5m-.1 2.7c.5.1 1 .3 1.3.7m7.7-2.9c-.8 0-.5.1-1.2-.5m-.1 2.7c.5.1 1 .3 1.3.7m7.6-2.9c-.8 0-.5.1-1.2-.5m-.1 2.7c.5.1 1 .3 1.3.7" stroke-linecap="round" stroke-width=".37" stroke="#231F20" fill="#FFF"/><path d="M128.6 68.6c.3-.4.4-.8.3-1.3.4.3.9.3 1.3 0 .8-.5.6-1.1.6-1.1s.3.3 1.5.1c1.2-.3.9-1.1.9-1.1.9.2 1.8-.2 2.1-1 3.9 1 3.8-1 3.8-1 1 .4 2.2.5 3.3.2 1.9-.6 1.2-1.3 1.2-1.3 1.8.3 3.6-1.2 3.5-1.9-.1-.7-2.4-.2-2.4-.2 4.4-1.5 5.6-3.3 4.8-3.4-.9 0-1.3.4-2.1.4-1.1 0-2.6-.2-2.6-.2 1.6-.6 2.8-1 4-1.5 2.6-1 3.2-2.3 2.7-2.4-.5-.1-.9.6-1.5.6s-1.4-.1-1.4-.1c4.2-2 4.8-3.9 4.2-3.9-.6 0-.7 1-1.5 1.2-.8.2-3.7.6-3.7.6.4-.9-.1-1.9-.7-1.6-.6.3-.5 1.7-3.5 1.8-2.2.2-4.4.9-6.3 2.1.3-.7-.6-1.5-.8-.8-.1.7-1.9 1.4-1.9 1.4-.8.7-10.3 1.3-12.3 4.2-2.6 3.6-5.6 5.1-10.1 3.3l-5.4.7c-4.6 1.6-7.5.1-10-3.6-2-2.9-11.4-3.8-12.2-4.6 0 0-1.7-.7-1.9-1.4-.2-.7-1.1 0-.8.8-1.9-1.2-4-2-6.2-2.3-3-.3-2.9-1.6-3.5-1.9-.6-.3-1.1.7-.8 1.6 0 0-2.9-.6-3.7-.8-.8-.2-.9-1.2-1.6-1.2-.7 0-.1 1.9 4 4 0 0-.9.1-1.4.1-.5 0-1-.6-1.5-.6s0 1.3 2.6 2.4c1.2.5 2.3.9 3.9 1.6 0 0-1.5.1-2.6.1-.7 0-1.2-.5-2-.5s.4 1.9 4.7 3.5c0 0-2.2-.6-2.4.1-.2.7 1.6 2.3 3.4 2 0 0-.7.7 1.1 1.4 1.1.3 2.2.3 3.3-.1 0 0-.2 2 3.7 1.1 0 0 .4 1.2 2.1 1.1 0 0-.3.8.9 1.1 1.2.3 1.5 0 1.5 0s-.2.6.6 1.1c.4.3.9.3 1.3.1-.1.4-.1.8.1 1.2z" fill="#B0720D"/><path d="M89.1 68.6c0 .1.1.1.1.2.2.4.7.5 1.1.3 0 0-.3.4.3 1.2.6.8 1 .4 1 .4 0 .3.1.7.3.9.2.2.5.4.8.4 0 .3.1.6.2.8.2.2.5.4.8.5 0 .3.1.5.3.8.3.3.6.4 1 .5 0 0-.1.6.3.9.4.3 1.6-.1 1.6-.1s-.1.3.5.6c.4.2.9.2 1.4.2l4.5-3-8.5 6.4s-.9.2.5 2.4c-.1.8.3 1.6.9 2 1.1.8 1.8.2 1.8.2s.1.9 1.5 1.2l.6.1h.3c-.3.1-.5.2-.7.4-.3.3-.4.7-.4 1.1.2.8 1 1.2 1.8 1 .3-.1.6-.3.8-.6l.7-.4c.3.6.9 1 1.5 1.1.6.1 1.2-.3 1.5-.9h.8l.9.4s1.7-.1 1.6-.4l.4-1.1c.1 1.8 1.6 1.4 1.6 1.4l1.4-.9.3-.1c.2.6.8 1 1.5.9.6-.1 1.2-.5 1.5-1.1l.6.3 1.2.5c.6.1 1-.7 1-.7 0-.4-.2-.8-.4-1.1-.5-.5-.7-.5-.7-.5l1.3-.1c1.4-.2 1.5-1.1 1.5-1.1s.6.6 1.8-.1c.7-.4 1.1-1.2 1-2 1.4-2.2.6-2.4.6-2.4l-8.4-6.7 4.4 3.2c.5.1 1 .1 1.4-.1.6-.3.6-.6.6-.6s1.2.4 1.6.1c.4-.3.3-.9.3-.9.4-.1.7-.2 1-.5.2-.2.3-.5.3-.7.3-.1.5-.3.8-.5.1-.3.2-.5.2-.8.3 0 .6-.2.8-.4.2-.2.3-.6.3-.9 0 0 .4.4 1-.4s.3-1.2.3-1.2c.3.2.8.1 1-.2z" fill="#B0720D"/><path d="M108.9 86.2c.1 1.8 1.6 1.4 1.6 1.4l1.4-.9.3-.1c.2.6.8 1 1.5.9.6-.1 1.2-.5 1.5-1.1l.6.3 1.2.5c.6.1 1-.7 1-.7 0-.4-.2-.8-.4-1.1-.5-.5-.7-.5-.7-.5v0l1.3-.1c1.4-.2 1.5-1.1 1.5-1.1s.6.6 1.8-.1c.7-.4 1.1-1.2 1-2 1.4-2.2.6-2.4.6-2.4l-8.4-6.7 4.4 3.2c.5.1 1 .1 1.4-.1.6-.3.6-.6.6-.6s1.2.4 1.6.1c.4-.3.3-.9.3-.9.4-.1.7-.2 1-.5.2-.2.3-.5.3-.7.3-.1.5-.3.8-.5.1-.3.2-.5.2-.8.3 0 .6-.2.8-.4.2-.2.3-.6.3-.9 0 0 .4.4 1-.4s.3-1.2.3-1.2c.4.2.9.1 1.1-.3.3-.4.4-.8.3-1.3.4.3.9.3 1.3 0 .8-.5.6-1.1.6-1.1s.3.3 1.5.1c1.2-.2.9-1.1.9-1.1.9.2 1.8-.2 2.1-1 3.9 1 3.8-1 3.8-1 1 .4 2.2.5 3.3.2 1.9-.6 1.2-1.3 1.2-1.3 1.8.3 3.6-1.2 3.5-1.9-.1-.7-2.4-.2-2.4-.2 4.4-1.5 5.6-3.3 4.8-3.4-.8-.1-1.3.4-2.1.4-1.1 0-2.6-.2-2.6-.2 1.6-.6 2.8-1 4-1.5 2.6-1 3.2-2.3 2.7-2.4-.5-.1-.9.6-1.5.6s-1.4-.1-1.4-.1c4.2-2 4.8-3.9 4.2-3.9-.6 0-.7 1-1.5 1.2-.8.2-3.7.6-3.7.6.4-.9-.1-1.9-.7-1.6-.6.3-.5 1.7-3.5 1.8-2.2.2-4.4.9-6.3 2.1.3-.7-.6-1.5-.8-.8-.2.7-1.9 1.4-1.9 1.4-.8.7-10.3 1.3-12.3 4.2-2.6 3.6-5.6 5.1-10.1 3.3l-5.4.7c-4.6 1.6-7.5.1-10-3.6-2-2.9-11.4-3.8-12.2-4.5 0 0-1.7-.7-1.9-1.4-.2-.7-1.1 0-.8.8-1.9-1.2-4-2-6.2-2.3-3-.3-2.9-1.6-3.5-1.9-.6-.3-1.1.7-.8 1.6 0 0-2.9-.6-3.7-.8-.8-.2-1.4-1.2-2-1.2-.6 0-.1 1.9 4 4 0 0-.9.1-1.4.1-.5 0-1-.6-1.5-.6s0 1.3 2.6 2.4c1.2.5 2.3.9 3.9 1.6 0 0-1.5.1-2.6.1-.7 0-1.2-.5-2-.5s.4 1.9 4.7 3.5c0 0-2.2-.6-2.4.1-.2.7 1.6 2.3 3.4 2 0 0-.7.7 1.1 1.4 1.1.3 2.2.3 3.3-.1 0 0-.2 2 3.7 1.1 0 0 .4 1.2 2.1 1.1 0 0-.3.8.9 1.1 1.2.3 1.5 0 1.5 0s-.2.6.6 1.1c.4.3.9.3 1.3.1-.1.5 0 .9.3 1.3.2.4.7.5 1.1.3 0 0-.3.4.3 1.2.6.8 1 .4 1 .4 0 .3.1.7.3.9.2.2.5.4.8.4 0 .3.1.6.2.8.2.2.5.4.8.5 0 .3.1.5.3.8.3.3.6.4 1 .5 0 0-.1.6.3.9.4.3 1.6-.1 1.6-.1s-.1.3.5.6c.4.2.9.2 1.4.2l4.5-3-8.5 6.5s-.9.2.5 2.4c-.1.8.3 1.6.9 2 1.1.8 1.8.2 1.8.2s.1.9 1.5 1.2l.6.1h.3c-.3.1-.5.2-.7.4-.3.3-.4.7-.4 1.1.2.8 1 1.2 1.8 1 .3-.1.6-.3.8-.6v0l.7-.4c.3.6.9 1 1.5 1.1.6.1 1.2-.3 1.5-.9h.8l.9.4s1.7-.1 1.6-.4" stroke-linejoin="round" stroke-linecap="round" stroke-width=".5" stroke="#231F20" fill="none"/><path stroke-width=".37" stroke="#231F20" fill="none" d="M103.9 51.8l-.2.3"/><path d="M102.7 51.3c-.2.1-.3.3-.4.5m11.1 0c.1.2.3.5.4.7m-17 3.4c0 1.4.6 1.2.6 1.2" stroke-width=".5" stroke="#231F20" fill="none"/><path d="M96.3 56.5c0 .3.1.6.3.8" stroke-width=".25" stroke="#231F20" fill="none"/><path stroke-width=".37" stroke="#231F20" fill="none" d="M114 52.9l.2.2m6.6 3.1l.1.2"/><path stroke-linecap="round" stroke-width=".37" stroke="#231F20" fill="none" d="M89.4 75.3l.3.5"/><path stroke-linecap="round" stroke-width=".5" stroke="#231F20" fill="none" d="M90.8 80.4l.5.3m-.2.8l.6.3m33.5-3.2c-.2.3-.5.5-.9.7m1 .5c-.2.3-.5.5-.9.7"/><path d="M81.5 53.9c.7 1.3 3 2.7 8.5 4l1.9.9" stroke-linecap="round" stroke-width=".37" stroke="#231F20" fill="none"/><path d="M82.6 55.1c0 .9.5 1.6 1.2 2 1.3.5 5.6 1.3 6 .9m-5.5-.5s.4 1.7 4.8 1.5c.3 0 .6-.1.9-.3" stroke-linecap="round" stroke-width=".37" stroke="#231F20" fill="none"/><path d="M90.3 59.5c-1.1.6-2.4.9-3.6.9-.8-.1-1.3-.9-1.2-1.7m4.5-.6c-.2.4-.1.8.2 1 0 0 0 0 0 0 .5.2 1 .3 1.5.3" stroke-linecap="round" stroke-width=".37" stroke="#231F20" fill="none"/><path d="M90.3 59.2c-.1.2 0 1 .4 1.1.4.1.9.1 1.3-.1M78.7 63c2.6-.6 5.2-1.5 7.5-2.7M82.4 64s3.4-.5 4.7-2.4m-12.5.2c.9-.1 7.3-1.3 10.8-3.2m-11.8 1s3.8.6 11.1-1.5m2 2.3c-.1.7.5 1.4 1.2 1.5h.2c.8-.1 1.5-.3 2.2-.6" stroke-linecap="round" stroke-width=".37" stroke="#231F20" fill="none"/><path d="M90.5 60.2c-.1.4-.4 1.1.1 1.3.5.2 1 .1 1.5-.1m-3.6.6c.6.6 1.4.8 2.2.6" stroke-linecap="round" stroke-width=".37" stroke="#231F20" fill="none"/><path d="M90.8 61.5c-.1.4-.3 1.3.3 1.5.6.2 1.3-.5 1.3-.5" stroke-linecap="round" stroke-width=".37" stroke="#231F20" fill="none"/><path d="M91.2 63c.1.7 0 1.1.4 1.3.6.2 1.3.1 1.9-.2m-8.9 1c1.1-.3 3.2-.6 4.7-2.6m-2.4 3.8c.8-.3 3.4-1.7 4-3.3m-2 4.4c1.2-.6 2.2-1.6 2.9-2.8m-18.4-8l1 1.1s8.2 0 9.6-.2M70 53c2.4 1.9 2.9 0 5.7 3 2.4.2 4.7.2 7.1.1" stroke-linecap="round" stroke-width=".37" stroke="#231F20" fill="none"/><path d="M70.9 51c1.9 2.3 5.4 1.1 7.5 4.4l3.9.1m10 9.2c.1.6.2 1.1.7 1.2.5.1 1.6-.8 1.6-.8m-1.2.8c.1.5.3 1.1.9 1.1.6-.1 1.1-.4 1.5-.7m-5.3 2.6c1.2-.6 2.2-1.4 3-2.4m-2 4.1c1-.4 3.1-1.8 3.6-2.7m-2.5 4c.6-.3 2.7-1.5 3.3-2.8m-2.4 4.2c1.5-.7 2.7-1.9 3.5-3.3" stroke-linecap="round" stroke-width=".37" stroke="#231F20" fill="none"/><path d="M94.7 67.1c.1.7.1 1.2.6 1.4.5.2 1.5-.8 1.5-1.1" stroke-linecap="round" stroke-width=".37" stroke="#231F20" fill="none"/><path d="M95.7 68.5c.1.4.3 1.1 1.1 1.1s1.4-1.4 1.4-1.4" stroke-linecap="round" stroke-width=".37" stroke="#231F20" fill="none"/><path d="M97.2 69.5c.1.5.5.8.9.9.7.1 1.3-1.6 1.3-1.6m-1.3 1.7c-.5 1.7-1.6 3.1-3.1 3.9m1.7 1s2.6-1.7 2.5-4.2m-.9 4.8s2.4-1.7 2-4.2" stroke-linecap="round" stroke-width=".37" stroke="#231F20" fill="none"/><path d="M98.6 70.5c.1.4.6 1.1 1.4.8.8-.3 1.1-1.9 1.1-1.9m-.9 1.9c.4.5.8.8 1.2.7.4-.1.9-1 1-1.8m-.5 2c0 .6 0 1.2-.1 1.8m-.1-2.2c.2.5.8.7 1.3.6m33.8-18.5c-.7 1.3-3.1 2.7-8.6 3.8l-1.9.8" stroke-linecap="round" stroke-width=".37" stroke="#231F20" fill="none"/><path d="M135.7 55.1c0 .9-.5 1.6-1.3 2-1.3.5-5.6 1.1-6.1.8m5.6-.5s-.5 1.7-4.8 1.4c-.3 0-.6-.1-.9-.3" stroke-linecap="round" stroke-width=".37" stroke="#231F20" fill="none"/><path d="M127.8 59.3c1.1.6 2.3.9 3.6 1 .8-.1 1.3-.9 1.2-1.7m-4.5-.7c.2.4 0 .8-.3 1-.5.2-1 .3-1.5.2" stroke-linecap="round" stroke-width=".37" stroke="#231F20" fill="none"/><path d="M127.8 58.9c.1.2-.1 1-.5 1-.4.1-.9 0-1.3-.1m13.3 3.3c-2.6-.7-5.1-1.7-7.5-3m3.8 3.9s-3.4-.6-4.7-2.6m12.6.6c-3.7-.7-7.3-1.8-10.7-3.5m11.7 1.3s-3.8.5-11.1-1.8" stroke-linecap="round" stroke-width=".37" stroke="#231F20" fill="none"/><path d="M131.4 60.3c.1.7-.5 1.4-1.3 1.5h-.2c-.8-.1-1.5-.3-2.2-.7m-.1-1.2c.1.4.3 1.1-.1 1.3-.5.2-1 .1-1.5-.1m3.5.7c-.6.6-1.4.8-2.2.5" stroke-linecap="round" stroke-width=".37" stroke="#231F20" fill="none"/><path d="M127.2 61.2c.1.4.3 1.3-.3 1.5-.6.2-1.3-.5-1.3-.5m1.3.6c-.1.7 0 1.1-.4 1.3-.6.2-1.3.1-1.9-.2m8.8 1.1c-1-.3-3.2-.7-4.6-2.7m2.2 3.8c-.8-.3-3.4-1.8-4-3.4m2 4.5c-1.2-.7-2.2-1.6-2.8-2.8m18.6-7.6l-1 1s-8.2-.2-9.6-.5m14.1-4c-2.5 1.9-2.9-.1-5.8 2.9-2.4.1-4.7.1-7.1-.1" stroke-linecap="round" stroke-width=".37" stroke="#231F20" fill="none"/><path d="M147.5 51.3c-2 2.3-5.4.9-7.7 4.2h-3.9m-10.2 8.9c-.1.6-.2 1.1-.7 1.2-.5.1-1.6-.8-1.6-.8m1.2.8c-.1.5-.3 1.1-1 1.1-.6-.1-1.1-.4-1.5-.8m5.3 2.8c-1.2-.6-2.2-1.5-2.9-2.5m1.8 4.1c-1-.4-3.1-1.9-3.5-2.8m2.4 4.1c-.6-.4-2.6-1.6-3.2-2.9m2.2 4.3c-1.4-.7-2.6-1.9-3.3-3.4" stroke-linecap="round" stroke-width=".37" stroke="#231F20" fill="none"/><path d="M123.2 66.7c-.1.7-.2 1.2-.7 1.4-.5.2-1.5-.8-1.5-1.2" stroke-linecap="round" stroke-width=".37" stroke="#231F20" fill="none"/><path d="M122.2 68.1c-.1.4-.3 1.1-1.1 1-.8-.1-1.3-1.5-1.3-1.5m.9 1.5c-.1.5-.5.8-1 .9-.7.1-1.2-1.6-1.2-1.6m1.2 1.6c.5 1.7 1.6 3.1 3.1 4m-1.8.9s-2.6-1.7-2.3-4.3m.7 5s-2.3-1.8-1.9-4.2" stroke-linecap="round" stroke-width=".37" stroke="#231F20" fill="none"/><path d="M119.2 70c-.1.4-.7 1.1-1.4.8-.7-.3-1-1.9-1-1.9m.8 1.9c-.4.5-.8.7-1.2.7-.4 0-.9-1-.9-1.8m.4 2c0 .6 0 1.2.1 1.8m.1-2.2c-.3.5-.8.7-1.3.6M95.3 82.2c.4.6 1.1 1.1 2 .1.9-1 5-4.6 5.6-5.3m-5 7s4-3.8 4.8-4.9m-3.4 6.2c1.4-.8 2.5-2.1 3.2-3.5m19.7 0c-.3.6-1 .8-1.6.5-.2-.1-.3-.2-.4-.4-.8-1-4.9-4.7-5.5-5.4m4.9 7.1s-3.9-3.9-4.7-5m3.3 6.2c-1.3-.9-2.4-2.1-3.1-3.6" stroke-linecap="round" stroke-width=".37" stroke="#231F20" fill="none"/><path d="M115.5 85.2c-.3-.3-.6-5.6-1.1-10.9 0-1.5-.3-3-.7-4.4-.2-.3-.3-.6-.5-.8-.2-.4-.4-.9-.5-.9-.1 0-.8 1.8-3.9 1.8-3.1 0-3.9-1.8-3.9-1.8-.2 0-.3.6-.5.9-.3.3-.6.8-.7 1.2-.3 1.3-.5 2.7-.5 4-.1 5.3-.8 10.6-1.1 10.9z" stroke-linecap="round" stroke-width=".25" stroke="#231F20" fill="#231F20"/><path d="M101.1 86c.2.4.3.9.1 1.4m14.5-1.8c-.1.3-.1.7 0 1" stroke-width=".25" stroke="#231F20" fill="none"/><path d="M99.8 87.4c.1.5.5.8 1.1.9 0 0-.6-.4-.4-.8.2-.2-.4-.5-.7-.1zm4.1.4c.3.6.9.9 1.5.6-.4-.1-.7-.4-.8-.8-.2-.1-.5-.1-.7.2zm3-.5c.4.3-.1.8-.6 1 0 0 1.4-.1 1.5-.6.1-.5.1-.7-.1-.8-.3.1-.6.2-.8.4z" stroke-width=".12" stroke="#231F20" fill="#FEBD11"/><path d="M109.8 87.4c0 .5.3.9.8 1.1-.2-.2-.1-.5.1-.8.3-.4-.3-.6-.3-.6s-.5 0-.6.3zm4.2-.4c-.2.6-.7 1.1-1.3 1.3 0 0 .6-.8.4-1.2-.2-.4.7-.2.9-.1zm3.4-.4c-.1.7-.6 1.2-1.3 1.3.3-.3.5-.7.5-1.2-.2-.7.8-.4.8-.1z" stroke-linecap="round" stroke-width=".12" stroke="#231F20" fill="#FEBD11"/><path d="M113.6 76.7c-.2.2-.2.5-.2.7.4.5.8.9 1.4 1.2.1-.5.1-1-.1-1.5-.3-.2-.7-.4-1.1-.4zm-9.6.1c.2.2.2.5.2.7-.4.5-.8.9-1.4 1.2-.1-.5-.1-1 .1-1.5.3-.2.7-.4 1.1-.4zm9.1-2.3c.5-.1 1 .1 1.4.5.3.6.3 1.2 0 1.8-.6-.1-1.1-.3-1.5-.6 0-.5.1-1.7.1-1.7z" stroke-linecap="round" stroke-width=".32" stroke="#231F20" fill="#B0720D"/><path d="M110.2 74.3c-.2.5-.2 1.1-.1 1.7l2.8.2c.3-.5.3-1.2 0-1.8" stroke-linecap="round" stroke-width=".32" stroke="#231F20" fill="#B0720D"/><path d="M114.5 74.8c-1.4-.5-2.9-.7-4.3-.4-.1-.5-.2-1.1-.1-1.6.2-.4.6-.7 1.1-.6.9 0 1.8 0 2.6.2.4.1.7 0 .7 2.4zm-10-.2c-.5-.1-1 .1-1.4.5-.3.6-.3 1.2 0 1.8.6 0 1.1-.3 1.5-.6 0-.5-.1-1.7-.1-1.7z" stroke-linecap="round" stroke-width=".32" stroke="#231F20" fill="#B0720D"/><path d="M107.4 74.4c.2.5.2 1.1.1 1.7l-2.8.2c-.3-.5-.3-1.2 0-1.8" stroke-linecap="round" stroke-width=".32" stroke="#231F20" fill="#B0720D"/><path d="M103.1 74.9c1.4-.5 2.9-.7 4.3-.4.1-.5.2-1.1.1-1.6-.2-.4-.6-.7-1.1-.6-.9 0-1.8 0-2.6.2-.4.1-.7 0-.7 2.4zm9.9 5c.7.2 1.8.6 1.9 1.1.1.5.6 2.1.2 2.5-.1.2-.6-.6-1.2-1.5-.4-.6-.7-1.3-.9-2.1z" stroke-linecap="round" stroke-width=".32" stroke="#231F20" fill="#B0720D"/><path d="M114.6 80.4c-.6 0-1.1-.3-1.5-.7-.2-.7-.1-1.4.2-2.1.5.2 1.1 1 1.3 1.2m-2.9.3c-.8.9-1.6 1.9-2.2 3-.3.4-.4 1-.1 1.5.3.3 2.4-2.3 2.6-3.3-.1-.4-.1-.8-.3-1.2zm-.5-2.9c-.4 0-.8-.2-1.1.2-.2.6-.3 1.2-.3 1.8.1.2 1.5 0 1.6-.4 0-.2-.2-1.6-.2-1.6z" stroke-linecap="round" stroke-width=".32" stroke="#231F20" fill="#B0720D"/><path d="M111.4 78.1c-.5 0-1.1.1-1.5.4-.4.9-.6 1.8-.6 2.8.2.6 1.2-1.3 1.8-1.9.6-.6.5-.5.5-.6 0-.3-.1-.5-.2-.7zm-6.8 2c-.7.2-1.8.6-1.9 1.1-.1.5-.6 2.1-.2 2.5.1.1.6-.7 1.2-1.5l.9-2.1z" stroke-linecap="round" stroke-width=".32" stroke="#231F20" fill="#B0720D"/><path d="M104.3 77.7c-.5.2-1.1 1-1.3 1.2-.2.2-.8 1.7 0 1.7.6 0 1.1-.3 1.5-.8.2-.7.1-1.5-.2-2.1zm.8 4.5c.6 1.1 1.2 2.1 2 3.1 0 0-1.2-.1-1.5.4-.2.3-1.2-.7-2.1-.4.6-1 1.2-2 1.6-3.1zm1.3-5.9c.4 0 .8-.2 1.1.2.2.6.3 1.2.3 1.8-.1.2-1.5-.1-1.6-.4.1-.6.1-1.1.2-1.6z" stroke-linecap="round" stroke-width=".32" stroke="#231F20" fill="#B0720D"/><path d="M101.7 85c.1.4.5.6.9.6.6-.1.7-.1.7-.1 2.2-2.5 3.2-9.2 3.2-9.5 0-.3 0-.9-1.4.1s-.7 1.3-.4 2.7c.3 1.4-1.3 4.2-2.3 5.5zm3.5-7.8c0 .2-.6 2.8-.6 2.8" stroke-linecap="round" stroke-width=".32" stroke="#231F20" fill="#B0720D"/><path d="M105.9 79.2c.8.9 1.6 1.9 2.2 3 .3.4.4 1 .1 1.5-.3.3-2.4-2.3-2.6-3.3.1-.4.1-.8.3-1.2zm.3-1c.5 0 1.1.2 1.5.4.4.9.6 1.8.6 2.8-.2.6-1.2-1.3-1.8-1.9-.6-.6-.5-.5-.5-.6 0-.2.1-.5.2-.7z" stroke-linecap="round" stroke-width=".32" stroke="#231F20" fill="#B0720D"/><path d="M105.2 82.1c.5 1.1 1.1 2.2 1.9 3.2.4-.1.9 0 1.2.4.3-.4.3-1 0-1.4-.4-.7-2.6-2.9-2.6-3.6 0-.7-.5 1.4-.5 1.4zm7.3 0c-.6 1.1-1.2 2.1-2 3.1 0 0 1.2-.1 1.5.4.2.3 1.2-.7 2.1-.4-.6-1-1.2-2.1-1.6-3.1z" stroke-linecap="round" stroke-width=".32" stroke="#231F20" fill="#B0720D"/><path d="M112.4 82c-.5 1.1-1.1 2.2-1.9 3.1-.4-.1-.9.1-1.2.4-.2-.4-.2-1 0-1.4.4-.7 2.6-2.9 2.6-3.6 0-.7.5 1.5.5 1.5z" stroke-linecap="round" stroke-width=".32" stroke="#231F20" fill="#B0720D"/><path d="M115.9 84.7c-.1.4-.5.6-.9.6-.6-.1-.7-.1-.7-.1-2.2-2.5-3.2-9.2-3.2-9.5 0-.3 0-.9 1.4.1s.8 1.3.4 2.7c-.4 1.4 1.3 4.2 2.3 5.5zm-3.5-7.7c0 .2.6 2.7.6 2.7" stroke-linecap="round" stroke-width=".32" stroke="#231F20" fill="#B0720D"/><path d="M109.3 85.6c-.4.1-.4.7-.4.7-.1.2-.2.5-.3.8 0-.4-.1-.8-.2-1.2-.2-.3.1.4.2-.7h.6c-.1-.1.2.3.1.4z" stroke-width=".37" stroke="#231F20" fill="#231F20"/><path d="M105.3 85.8c-.5-.3-2.1-1.1-3 .1" stroke-width=".37" stroke="#231F20" fill="#C69130"/><path d="M112 86.1c.1-.5.4-.9 1.8-.9 1.2 0 1.1.2 1.2.3m1.5-.7c-.3-.1-1.8-.4-1.4 1.4m-14.4-1c.3-.1 1.3-.7 1.6.7" stroke-linecap="round" stroke-width=".37" stroke="#231F20" fill="#C69130"/><path d="M104.2 57.4c-.5-1.3-.1-2.1 1.1-2.2h1.6s-.1-.6.4-.7c1-.2 2-.2 2.9 0 .2.1.3.2.5.3l.1.1s1.2 1.8 2.2 7l-.8-.2.3 1-1-.1.1.6-.4-.1c-.3.4-.4.9-.3 1.4 0 0-1.7-.4-2-1.4l-.4.9-.6-1.2s-.8.4-.8 1c0 .3-.6-.9-.5-1.3.1-.4-1.3.2-1.3.2.1-.5.3-1 .8-1.3.7-.3 1.4-4 .4-4.1-1.3-.1-1.4-.4-1.4-.4l-.1.1c0-.1-.4-.3-.8.4z" stroke-linejoin="round" stroke-linecap="round" stroke-width=".37" stroke="#231F20" fill="#FFF"/><path d="M108.1 55.6c0-.1.8-.4 1.1 0 .3.4-.5.4-.5.4v-.3l-.3.3c-.1-.1-.3-.2-.3-.4z" fill="#231F20"/><path d="M107.5 55.1c-.1.1-.1.2-.1.3 0 0 .1.1 1.2 0 .3 0 .7 0 1 .2" stroke-linejoin="round" stroke-linecap="round" stroke-width=".17" stroke="#231F20" fill="none"/><path d="M105.4 86c.2.4.3.9.1 1.4m9.4-2.3c.2.4.3.9.1 1.4" stroke-width=".25" stroke="#231F20" fill="none"/><path d="M107.6 57.2c-.8 0-1.6-.1-2.4-.3l-.2.1s-.5-.2-.8.5c-.5-1.3-.1-2.1 1.1-2.2h1.6c-.4 0-.5.5-.1.9.3.2.6.6.8 1z" stroke-linejoin="round" stroke-linecap="round" stroke-width=".25" stroke="#231F20" fill="#FEBD11"/><path d="M105.1 56.8s.1.3 1.4.4c.3 0 .7 0 1-.1l-1.2-.2c-.5.1-1.2-.1-1.2-.1z" stroke-linejoin="round" stroke-linecap="round" stroke-width=".12" stroke="#231F20" fill="#FDB913"/><g stroke="#231F20"><path d="M108.4 171c6-5.2 15.5-9.4 21.2-11.2 9.6-3.1 12.2-10.7 12.5-15.2.3-4.2-1-7.2-3.2-16.4s4.2-24.5 4.2-24.5l-9.2-8.5h-51l-9.2 8.5s6.5 15.2 4.2 24.4-3.5 12.2-3.2 16.4c.3 4.5 2.9 12.1 12.5 15.2 5.7 1.9 15.2 6 21.2 11.3z" stroke-linejoin="round" stroke-linecap="round" stroke-width=".62" fill="#FFF"/><path d="M108.2 142.1c3.6 0 4.2.5 4.2 1.5s-1 .5-1 1.3c0 1.6 3.3 1.5 3.3 1.5 3.3 0 3.4-1.5 3.4-1.5 0-1.1-.8-.4-.8-1.6 0-1.2 2.5-1.3 3.2-1.3.7 0 3.6.1 3.6 1.3s-.8.4-.8 1.6c0 1.6 3.7 1.5 3.7 1.5 1.1 0 3.5 0 3.5-1.4s-.8-.5-.8-1.6c0-1.4 2.8-1.3 3.5-1.3.7 0 3.5-.2 3.5 1.3 0 1.1-.9.3-.9 1.5 0 1.4 3.4 1.4 3.4 1.4 1-7.4-3.6-14.9-3.6-22.1.1-6.8 1.5-13.5 3.9-19.8l-7.2-7H84.1l-7.2 7c2.5 6.3 3.8 13 3.9 19.8 0 8.3-4.8 15.1-3.3 21.9 0 0 3.1.1 3.1-1.2 0-1.2-.9-.4-.9-1.5 0-1.5 2.7-1.3 3.5-1.3.8 0 3.5-.1 3.5 1.3 0 1.1-.8.3-.8 1.6s2.4 1.4 3.5 1.4c0 0 3.7.1 3.7-1.5 0-1.2-.8-.4-.8-1.6 0-1.2 2.8-1.3 3.6-1.3.8 0 3.2 0 3.2 1.3s-.8.4-.8 1.6c0 0 .2 1.5 3.4 1.5 0 0 3.3.1 3.3-1.5 0-.8-1-.5-1-1.3s.7-1.5 4.2-1.5z" stroke-width=".5" fill="#6ACFF6"/><path stroke-width=".5" fill="#FEBD11" d="M98.1 108.5l-2.9-3.1-.5.7-4.2-5.8 6.2 3.9-.9.6 5.8 4.4-1.3.3 7.1 5.6-.8 2.4-9.6-8.8zm-6.4 3.9l-3.5-2.3-.3.8-5.5-4.7 7 2.4-.7.7 6.6 3-1.1.6 8.2 3.7-.2 2.5-11.4-6.2zm.7 14.1l-3.7 2.1.5.6-6.6 2.6 5.3-5 .3 1 5.8-4.5-.1 1.3 7.2-5.5 2.1 1.4-10.8 7.1zm6.4 3.8l-3.1 2.9.6.5-5.8 4.1 4-6.1.5.8 4.6-5.7.2 1.3 5.7-7 2.4.8-8.9 9.5zm19.4-21.8l2.8-3.1.5.7 4.2-5.8-6.2 3.9.9.6-5.7 4.4 1.2.3-7.1 5.6.8 2.4 9.6-8.8zm6.3 3.9l3.5-2.3.3.8 5.5-4.7-7 2.4.8.7-6.7 3 1.2.6-8.3 3.7.3 2.5 11.4-6.2zm-.7 14.1l3.7 2.1-.5.6 6.7 2.6-5.4-5-.3 1-5.7-4.5v1.3l-7.2-5.5-2.1 1.4 10.8 7.1zm-6.4 3.8l3.1 2.9-.6.5 5.9 4.1-4-6.1-.6.8-4.5-5.7-.3 1.3-5.7-7-2.3.8 8.8 9.5z"/><path d="M108.1 117.2s-4 .6-4.7.1c-.7-.5-.9-.7-.9-.9-.1-.8.6-1 .3-1.5s-1.1-.9-5.6-.9c-.5-.1-1-.2-1.5-.5-.5-.4-1.6-.2-1.3.7-1.9.3-3.9.3-5.8-.1-2.2-.3-3.1-.5-3.3-.1-.2.4.9 1.5 2.8 1.9 0 0-.3 1.2 2.4 1.4 0 0 .1 1.7 3.2 1 .4.8 1.2 1.2 2.1 1 0 0 0 .9 1.3 1.3 0 0 .1 1.3 1.2 1.4.5.6 1.3.8 2 .7.5.3 1.1.4 1.6.2.5.4 1.1.4 1.6.1.5.3 1.1.4 1.6.1.6.3 1.3.3 1.8-.2.9-.9 1.2-5.7 1.2-5.7zm0 0s4 .6 4.7.1c.7-.5.9-.7.9-.9.1-.8-.6-1-.3-1.5s1.1-.9 5.6-.9c.5-.1 1-.2 1.5-.5.5-.4 1.6-.2 1.3.7 1.9.3 3.9.3 5.8-.1 2.2-.3 3.1-.5 3.3-.1.2.4-.9 1.5-2.8 1.9 0 0 .3 1.2-2.4 1.4 0 0-.1 1.7-3.2 1-.4.8-1.2 1.2-2.1 1 0 0 0 .9-1.3 1.3 0 0-.1 1.3-1.3 1.4-.5.6-1.3.8-2 .7-.5.3-1.1.4-1.6.2-.5.4-1.1.4-1.6.1-.5.3-1.1.4-1.6.1-.6.3-1.3.3-1.8-.2-.9-.9-1.1-5.7-1.1-5.7z" stroke-width=".5" fill="#FEBD11"/><path d="M94.7 114.2c.2.7.8 1.1 4.6 1.1.4 0 .7.3.7.7 0 0 0 0 0 0m-4.1-.9c0 1.2 1.2 1.7 3.2 1m1.3 1.1s-1.2 1.4-2.1 1.1c-.4-.1-.6-.5-.6-.8" stroke-linecap="round" stroke-width=".37" fill="none"/><path d="M99.8 116.6s-1.8 1.3-2.5.7c-.7-.6-.1-.8-.1-.8m1.6 1.8c.3.5.4.9 1.1.7.5-.2 1-.5 1.3-.9" stroke-linecap="round" stroke-width=".37" fill="none"/><path d="M94.9 114.8c-2.1.8-4.4 1.2-6.6 1.1m7.5-.8s-.8 1.4-5.2 2.2m5.8-1.1s-.4.9-2.4 2m.1 0c1.6-.1 3-.9 2.9-1.7m-1 2.7s1.5-.3 1.5-1.6m-.3 2.9s1.2 0 1.5-2" stroke-width=".37" fill="none"/><path d="M99.7 119.2c.2.6.9 1 1.5.8.7-.2 1.1-1.1 1.1-1.1" stroke-linecap="round" stroke-width=".37" fill="none"/><path d="M98.5 121.9c.8-.4 1.4-1.2 1.5-2.2m.2 2.9c.9-.5 1.3-1.4 1.1-2.4" stroke-width=".37" fill="none"/><path d="M101.2 119.9c.4.8.8.9 1.3.9s1.1-1.5 1.1-1.5m-.7 1.3c.3.3.8.4 1.3.3.5-.3.9-.8.9-1.4" stroke-linecap="round" stroke-width=".37" fill="none"/><path d="M104.1 120.9c.1.7 0 1.3-.3 1.9m-1.1-2c.1.7-.1 1.3-.5 1.9m3 .2c.3-.6.5-1.4.4-2.1" stroke-width=".37" fill="none"/><path d="M104.6 120.7c.6.4 1.4.3 1.8-.3 0 0 0-.1.1-.1m15-6.1c-.2.7-.8 1.1-4.6 1.1-.4 0-.7.3-.7.7 0 0 0 0 0 0m4-.9c0 1.2-1.2 1.7-3.2 1m-1.3 1.1s1.2 1.4 2.1 1.1c.4-.1.6-.5.6-.8" stroke-linecap="round" stroke-width=".37" fill="none"/><path d="M116.3 116.6s1.8 1.3 2.5.7c.7-.6.1-.8.1-.8m-1.6 1.8c-.3.5-.4.9-1.1.7-.5-.2-1-.5-1.3-.9" stroke-linecap="round" stroke-width=".37" fill="none"/><path d="M121.2 114.8c2.1.8 4.3 1.2 6.6 1.1m-7.5-.8s.8 1.4 5.2 2.2m-5.8-1.1s.4.9 2.4 2m0 0c-1.6-.1-3-.9-2.9-1.7m.9 2.7s-1.5-.3-1.5-1.6m.3 2.9s-1.3 0-1.5-2" stroke-width=".37" fill="none"/><path d="M116.4 119.2c-.2.6-.9 1-1.5.8-.7-.2-1.1-1.1-1.1-1.1" stroke-linecap="round" stroke-width=".37" fill="none"/><path d="M117.6 121.9c-.8-.4-1.4-1.2-1.5-2.2m-.2 2.9c-.9-.5-1.3-1.4-1.1-2.4" stroke-width=".37" fill="none"/><path d="M114.9 119.9c-.4.8-.8.9-1.3.9s-1.1-1.5-1.1-1.5m.7 1.3c-.3.3-.8.4-1.3.3-.5-.3-.9-.8-.9-1.4" stroke-linecap="round" stroke-width=".37" fill="none"/><path d="M112 120.9c-.1.7 0 1.3.3 1.9m1.1-2c-.1.7.1 1.3.5 1.9m-3 .2c-.3-.6-.5-1.4-.4-2.1" stroke-width=".37" fill="none"/><path d="M111.5 120.7c-.6.4-1.4.3-1.8-.3 0 0 0-.1-.1-.1" stroke-linecap="round" stroke-width=".37" fill="none"/><path d="M108.6 104.5c.3-.8.4-1.7.3-2.6-.1-1.5-1.5-2.1-.4-3.5 0-.1-.1-.3-.2-.3h-.1c-.8.9-1.4 2-1.6 3.2-.1 3.3 2 1.8 2 3.2z" stroke-width=".5" fill="#FEBD11"/><path d="M108.2 106.7c-.5-1.4.2-2.9 1.5-3.4h.1c2.4-.8 2.9.8 4.2.1.7-.3.1-1.2.1-1.2s.1-.4.4-.1c.3.3 1.1 3.1-1.8 3.3-2.9.2-4 .6-4.5 1.3z" stroke-width=".5" fill="#FEBD11"/><path d="M108.8 106.5c.5-1.4-.2-2.9-1.5-3.4h-.1c-2.4-.8-2.9.8-4.2.1-.7-.3-.1-1.2-.1-1.2s-.1-.4-.4-.1c-.3.3-1.1 3.1 1.8 3.3 2.9.2 4 .6 4.5 1.3z" stroke-width=".5" fill="#FEBD11"/><path d="M106.5 105.6c-1.3 3 2.7 5 2.7 5 .9-4.2-1.5-4.5-2.2-4.9z" stroke-width=".5" fill="#FEBD11"/><path d="M106.5 108.4c-1.6 2.9 2.7 5.1 2.7 5.1.9-4.3-1.9-4.8-2.6-5.2zm1.7 23.1c.5 1.4-.2 2.9-1.6 3.4h-.1c-2.4.8-2.9-.8-4.2-.1-.7.3-.1 1.2-.1 1.2s-.1.4-.4.1c-.3-.3-1.1-3.1 1.8-3.3 2.9-.2 4.1-.6 4.6-1.3z" stroke-width=".5" fill="#FEBD11"/><path d="M107.5 131.6c-.5 1.4.2 2.9 1.6 3.4h.1c2.4.8 2.9-.8 4.2-.1.7.3.1 1.2.1 1.2s.1.4.4.1c.3-.3 1.1-3.1-1.8-3.3-2.9-.2-4.1-.5-4.6-1.3z" stroke-width=".5" fill="#FEBD11"/><path d="M109.4 132.6c1.7-3-2.7-5-2.7-5-.9 4.2 1.5 4.5 2.2 4.9z" stroke-width=".5" fill="#FEBD11"/><path d="M109.4 129.8c1.7-2.9-2.7-5.1-2.7-5.1-1.1 4 1.9 4.8 2.6 5.2zm-2 2.2c-.4 1.4-.5 3-.3 4.5.4 1.4 1.5 2.1.8 3.3 0 .1.1.3.2.3h.1c.8-.9 1.4-2 1.6-3.2 0-3.3-2.4-3.5-2.4-4.9zm-.8-20.6c-2.2 4.4 2.7 6.1 2.7 6.1.9-4.5-1.8-5.5-2.6-5.9z" stroke-width=".5" fill="#FEBD11"/><path d="M109.6 126.1c1.8-3.2-3.2-5.7-3.2-5.7-1.6 3.8 2 5.8 2.8 6.2z" stroke-width=".5" fill="#FEBD11"/><path d="M106.6 114.9c.6 1.2 1.6 2.1 2.8 2.7.6 1.3.9 2.8.8 4.3-.1.5-.3 1-.6 1.5-.8-1.1-1.9-2.1-3-2.9-1-.6-1.1-2.9-1.1-3.3.1-.9.5-1.7 1.1-2.3z" stroke-width=".5" fill="#FEBD11"/></g></g></svg>